<?xml version="1.0" standalone="no"?><!DOCTYPE svg PUBLIC "-//W3C//DTD SVG 1.1//EN" "http://www.w3.org/Graphics/SVG/1.1/DTD/svg11.dtd"><svg t="1589509725065" class="icon" viewBox="0 0 1024 1024" version="1.1" xmlns="http://www.w3.org/2000/svg" p-id="5139" xmlns:xlink="http://www.w3.org/1999/xlink" width="200" height="200"><defs><style type="text/css"></style></defs><path d="M941.639344 146.360656l-25.180328-0.52459c-1.04918 0-101.245902-2.098361-205.639344-43.016394-105.967213-40.918033-175.213115-89.180328-175.737705-89.704918L519.868852 2.622951c-2.098361-1.57377-5.245902-2.622951-8.393442-2.622951-3.147541 0-5.770492 1.04918-7.868853 2.622951l-15.213114 10.491803c-2.622951 2.098361-70.295082 48.786885-175.737705 90.229508-104.393443 40.918033-204.590164 43.016393-205.639345 43.016394l-25.180327 0.52459C74.491803 146.360656 68.721311 152.131148 68.721311 158.95082v419.147541c0 97.04918 59.803279 207.737705 163.672132 303.737705 93.377049 86.032787 203.016393 142.163934 279.081967 142.163934 76.590164 0 186.229508-55.606557 279.606557-142.163934 103.868852-96 163.672131-206.688525 163.672131-304.262296V158.95082c0-6.819672-5.770492-12.590164-13.114754-12.590164z m-209.311475 256l-268.590164 268.065574c-6.295082 6.295082-15.213115 9.967213-24.131148 9.967213s-17.836066-3.672131-24.131147-9.967213l-123.803279-123.803279c-13.114754-13.114754-13.114754-35.147541 0-48.262295 6.295082-6.295082 15.213115-9.967213 24.131148-9.967213 8.918033 0 17.836066 3.672131 24.131147 9.967213l99.672131 99.672131 243.934427-243.934426c6.295082-6.295082 15.213115-9.967213 24.131147-9.967213 9.442623 0 17.836066 3.672131 24.655738 9.967213 6.295082 6.295082 9.967213 15.213115 9.967213 24.131147 0 8.918033-3.147541 17.311475-9.967213 24.131148z" p-id="5140"></path></svg>