<svg t="1602318424620" class="icon" viewBox="0 0 1024 1024" version="1.1" xmlns="http://www.w3.org/2000/svg" p-id="2411" width="200" height="200"><path d="M938.666667 512v341.333333a85.333333 85.333333 0 0 1-85.333334 85.333334H170.666667a85.333333 85.333333 0 0 1-85.333334-85.333334v-341.333333a42.666667 42.666667 0 0 1-42.666666-42.666667V341.333333a85.333333 85.333333 0 0 1 85.333333-85.333333h135.253333A128 128 0 0 1 256 213.333333a128 128 0 0 1 128-128c42.666667 0 80.213333 21.333333 103.68 52.906667v-0.426667L512 170.666667l24.32-32.853334v0.426667C559.786667 106.666667 597.333333 85.333333 640 85.333333a128 128 0 0 1 128 128 128 128 0 0 1-7.253333 42.666667H896a85.333333 85.333333 0 0 1 85.333333 85.333333v128a42.666667 42.666667 0 0 1-42.666666 42.666667M170.666667 853.333333h298.666666v-341.333333H170.666667v341.333333m682.666666 0v-341.333333h-298.666666v341.333333h298.666666M384 170.666667a42.666667 42.666667 0 0 0-42.666667 42.666666 42.666667 42.666667 0 0 0 42.666667 42.666667 42.666667 42.666667 0 0 0 42.666667-42.666667 42.666667 42.666667 0 0 0-42.666667-42.666666m256 0a42.666667 42.666667 0 0 0-42.666667 42.666666 42.666667 42.666667 0 0 0 42.666667 42.666667 42.666667 42.666667 0 0 0 42.666667-42.666667 42.666667 42.666667 0 0 0-42.666667-42.666666M128 341.333333v85.333334h341.333333V341.333333H128m426.666667 0v85.333334h341.333333V341.333333h-341.333333z" fill="#ffffff" p-id="2412"></path></svg>